<svg width="15" height="12" viewBox="0 0 15 12" fill="none" xmlns="http://www.w3.org/2000/svg">
<path d="M14.2675 5.65067L9.76508 1.1482C9.56748 0.950599 9.25696 0.950599 9.07348 1.1482C8.87588 1.3458 8.87588 1.65632 9.07348 1.8398L12.7432 5.50953L1.49408 5.50953C1.22591 5.50953 1.00008 5.73536 1.00008 6.00353C1.00008 6.2717 1.22591 6.49753 1.49408 6.49753L12.7291 6.49753L9.05936 10.1673C8.86176 10.3649 8.86176 10.6754 9.05936 10.8589C9.15816 10.9577 9.28519 11 9.41222 11C9.53925 11 9.66628 10.9577 9.76508 10.8589L14.2675 6.35639C14.3663 6.25759 14.4087 6.14467 14.4087 6.00353C14.4087 5.86239 14.3522 5.74947 14.2675 5.65067Z" fill="black" stroke="black" stroke-width="0.8"/>
</svg>
