<svg width="40" height="40" viewBox="0 0 40 40" fill="none" xmlns="http://www.w3.org/2000/svg">
<path d="M20.3255 31.625C13.9023 31.625 8.68164 26.7571 8.68164 20.7708C8.68164 19.6102 8.87847 18.4701 9.26611 17.373C9.26611 16.9085 9.26611 16.4369 9.27331 15.9592C9.30091 14.1793 9.9898 9.8251 11.8897 8.46064C12.1357 8.28421 12.4741 8.29141 12.7058 8.48104L16.2943 11.3794C17.5749 10.9438 18.9539 10.7109 20.3257 10.7109C21.6974 10.7109 22.894 10.9006 24.1183 11.3026L27.6565 8.48104C27.8965 8.29141 28.2266 8.28421 28.4726 8.46064C29.9932 9.55039 31.0409 12.5617 31.0901 15.9592V16.6409C31.6674 17.9491 31.9626 19.3353 31.9626 20.7705C31.9626 26.7569 26.742 31.6248 20.3188 31.6248L20.3255 31.625ZM12.3191 9.90916C11.2989 11.1333 10.6508 14.1085 10.6233 15.9867C10.6161 16.5004 10.6161 16.9997 10.6161 17.4917C10.6161 17.5697 10.6017 17.6537 10.5741 17.7317C10.2152 18.7087 10.0328 19.736 10.0328 20.7778C10.0328 26.0178 14.6476 30.2808 20.3254 30.2808C26.0032 30.2808 30.618 26.0178 30.618 20.7778C30.618 19.4972 30.3444 18.2514 29.8091 17.0777C29.7671 16.9924 29.7455 16.894 29.7455 16.7956C29.7455 16.528 29.7455 16.2544 29.7395 15.9867C29.6963 13.1099 28.909 10.8871 28.0509 9.90178L24.6807 12.5961C24.4971 12.7438 24.2511 12.7858 24.0326 12.7018C22.8373 12.2721 21.6263 12.0681 20.3325 12.0681C19.0375 12.0681 17.6441 12.3153 16.4139 12.7786C16.1883 12.8638 15.9351 12.8218 15.7527 12.673L12.3263 9.90178L12.3191 9.90916Z" fill="black"/>
<path fill-rule="evenodd" clip-rule="evenodd" d="M16.7367 18.9983C17.0115 18.9983 17.2288 19.2227 17.2288 19.4904C17.2288 19.758 17.0044 19.9824 16.7367 19.9824C16.4691 19.9824 16.2446 19.758 16.2446 19.4904C16.2446 19.2227 16.4691 18.9983 16.7367 18.9983Z" fill="black"/>
<path d="M16.7371 20.658C16.0902 20.658 15.5693 20.13 15.5693 19.4903C15.5693 18.8506 16.0974 18.3225 16.7371 18.3225C17.3768 18.3225 17.9049 18.8506 17.9049 19.4903C17.9049 20.13 17.3768 20.658 16.7371 20.658ZM16.7371 19.3079C16.6387 19.3079 16.5547 19.3919 16.5547 19.4903C16.5547 19.6871 16.9135 19.6871 16.9135 19.4903C16.9135 19.3919 16.8355 19.3079 16.7299 19.3079H16.7371Z" fill="black"/>
<path fill-rule="evenodd" clip-rule="evenodd" d="M23.9137 18.9983C24.1873 18.9983 24.4058 19.2227 24.4058 19.4904C24.4058 19.758 24.1801 19.9824 23.9137 19.9824C23.6461 19.9824 23.4204 19.758 23.4204 19.4904C23.4204 19.2227 23.646 18.9983 23.9137 18.9983Z" fill="black"/>
<path d="M23.9139 20.658C23.2658 20.658 22.7461 20.13 22.7461 19.4903C22.7461 18.8506 23.273 18.3225 23.9139 18.3225C24.5535 18.3225 25.0816 18.8506 25.0816 19.4903C25.0816 20.13 24.5535 20.658 23.9139 20.658ZM23.9139 19.3079C23.8154 19.3079 23.7302 19.3919 23.7302 19.4903C23.7302 19.6871 24.0891 19.6871 24.0891 19.4903C24.0891 19.3919 24.0051 19.3079 23.9067 19.3079H23.9139Z" fill="black"/>
<path d="M21.9431 27.08C21.3166 27.08 20.7405 26.8268 20.3253 26.4115C19.9028 26.8268 19.3267 27.08 18.7075 27.08C17.4341 27.08 16.3923 26.0467 16.3923 24.7661C16.3923 24.3929 16.6948 24.0904 17.068 24.0904C17.4401 24.0904 17.7437 24.3929 17.7437 24.7661C17.7437 25.293 18.1722 25.7298 18.7074 25.7298C19.1851 25.7298 19.5932 25.371 19.6568 24.8993C19.664 24.8501 19.6784 24.7937 19.6916 24.7517L18.5598 22.9575C18.4254 22.7474 18.4182 22.487 18.5382 22.2686C18.6582 22.0501 18.8826 21.9169 19.1287 21.9169H21.5146C21.7534 21.9169 21.9791 22.043 22.0979 22.2542C22.2179 22.4654 22.2179 22.7186 22.0979 22.9299L20.9865 24.843C20.9865 24.843 20.9865 24.879 20.9937 24.8922C21.0573 25.3638 21.4654 25.7227 21.943 25.7227C22.4711 25.7227 22.9068 25.293 22.9068 24.7589C22.9068 24.3857 23.2092 24.0833 23.5825 24.0833C23.9557 24.0833 24.2581 24.3857 24.2581 24.7589C24.2581 26.0323 23.2236 27.0728 21.943 27.0728L21.9431 27.08ZM26.0657 25.1946C25.7008 25.1946 25.4044 24.9065 25.3912 24.5405C25.3768 24.1684 25.672 23.8588 26.0453 23.8444L32.525 23.6259C32.8982 23.6055 33.2079 23.908 33.2211 24.28C33.2355 24.6533 32.9403 24.9629 32.567 24.9773L26.0873 25.1945L26.0657 25.1946ZM14.5837 25.1946H14.5633L8.08359 24.9773C7.71035 24.9629 7.41509 24.6533 7.4295 24.28C7.4427 23.908 7.75235 23.6055 8.12559 23.6259L14.6053 23.8444C14.9786 23.8588 15.2738 24.1684 15.2594 24.5405C15.245 24.9065 14.9498 25.1946 14.5837 25.1946ZM26.0657 23.4507C25.7428 23.4507 25.4536 23.2179 25.3984 22.8878C25.3348 22.5218 25.588 22.1702 25.9541 22.1137L33.1933 20.9256C33.5665 20.862 33.911 21.1152 33.9674 21.4813C34.0298 21.8461 33.7766 22.1977 33.4117 22.2542L26.1712 23.4435C26.1364 23.4435 26.1016 23.4507 26.0596 23.4507L26.0657 23.4507ZM14.5837 23.4507C14.5489 23.4507 14.5141 23.4507 14.4721 23.4435L7.23164 22.2541C6.86679 22.1917 6.61356 21.8461 6.67596 21.4812C6.73957 21.1152 7.07682 20.862 7.45006 20.9256L14.6893 22.1137C15.0553 22.1773 15.3086 22.5218 15.245 22.8878C15.1898 23.2179 14.9077 23.4507 14.5777 23.4507L14.5837 23.4507Z" fill="black"/>
</svg>
