<svg width="40" height="40" viewBox="0 0 40 40" fill="none" xmlns="http://www.w3.org/2000/svg">
<path fill-rule="evenodd" clip-rule="evenodd" d="M18.0054 17.1296C18.2855 17.1296 18.5077 17.36 18.5077 17.6331C18.5077 17.9063 18.2786 18.1354 18.0054 18.1354C17.7323 18.1354 17.502 17.9062 17.502 17.6331C17.502 17.36 17.7323 17.1296 18.0054 17.1296Z" fill="black"/>
<path d="M18.0055 18.8333C17.3434 18.8333 16.811 18.294 16.811 17.6401C16.811 16.9861 17.3504 16.4468 18.0055 16.4468C18.6594 16.4468 19.1987 16.9861 19.1987 17.6401C19.1987 18.294 18.6594 18.8333 18.0055 18.8333ZM18.0055 17.4525C17.9048 17.4525 17.818 17.5393 17.818 17.64C17.818 17.8414 18.1849 17.8414 18.1849 17.64C18.1849 17.5393 18.0981 17.4525 17.9974 17.4525H18.0055Z" fill="black"/>
<path fill-rule="evenodd" clip-rule="evenodd" d="M21.6656 17.1296C21.9457 17.1296 22.1679 17.36 22.1679 17.6331C22.1679 17.9063 21.9387 18.1354 21.6656 18.1354C21.3924 18.1354 21.1621 17.9062 21.1621 17.6331C21.1621 17.36 21.3924 17.1296 21.6656 17.1296Z" fill="black"/>
<path d="M21.6656 18.8333C21.0036 18.8333 20.4712 18.294 20.4712 17.6401C20.4712 16.9861 21.0105 16.4468 21.6656 16.4468C22.3195 16.4468 22.8589 16.9861 22.8589 17.6401C22.8589 18.294 22.3195 18.8333 21.6656 18.8333ZM21.6656 17.4525C21.5649 17.4525 21.4781 17.5393 21.4781 17.64C21.4781 17.8414 21.845 17.8414 21.845 17.64C21.845 17.5393 21.7663 17.4525 21.6575 17.4525H21.6656Z" fill="black"/>
<path d="M19.8318 28.3579H19.738C19.4221 28.315 19.1767 28.0558 19.1489 27.7398C19.1489 27.69 19.1339 27.5454 19.1489 27.337C19.12 27.0211 18.9903 26.4968 18.4869 26.1877C18.3364 26.094 18.1558 25.9863 17.9544 25.8775C16.7473 25.1877 15.1003 24.2467 15.0713 22.8011C15.0574 21.9029 15.3167 21.1772 15.848 20.6309C16.819 19.6379 18.4648 19.5013 19.7878 19.4944H19.8746C21.2045 19.4944 22.8435 19.6379 23.8213 20.6309C24.3537 21.1773 24.613 21.9029 24.5979 22.8011C24.569 24.2386 22.9231 25.1877 21.7148 25.8775C21.5203 25.9933 21.334 26.094 21.1835 26.1877C20.6801 26.5037 20.5504 27.0211 20.5215 27.337C20.5354 27.6252 20.5076 27.8405 20.4717 27.9273C20.371 28.1923 20.1118 28.3648 19.8317 28.3648L19.8318 28.3579ZM19.8677 20.8672H19.7878C18.2647 20.8753 17.3005 21.1126 16.8329 21.5871C16.5667 21.8602 16.4383 22.248 16.4452 22.7653C16.4591 23.4193 17.8688 24.2318 18.6304 24.6704C18.8387 24.7931 19.0401 24.9077 19.2056 25.0084C19.4579 25.167 19.6663 25.3464 19.8318 25.5408C19.9973 25.3464 20.2056 25.167 20.4568 25.0084C20.6223 24.9077 20.8167 24.7931 21.032 24.6704C21.7947 24.2318 23.2033 23.4274 23.2172 22.7653C23.2253 22.248 23.1026 21.8603 22.8295 21.5871C22.3619 21.1045 21.392 20.8753 19.8677 20.8672Z" fill="black"/>
<path d="M23.8794 31.7374C22.1965 31.7374 20.6791 30.6945 19.8308 29.1054C18.9755 30.6945 17.4662 31.7374 15.7834 31.7374C12.7567 31.7374 10.9523 29.1343 10.9523 24.778C10.9523 24.4261 10.9731 24.0523 11.0171 23.6645C11.2972 21.0835 13.0009 15.103 14.2589 12.6586C13.9429 12.0255 13.6906 11.8461 13.6119 11.8241C13.5899 11.8241 13.5043 11.853 13.3816 11.9688C12.5841 12.7304 12.4614 13.7651 12.3249 14.9584C12.1594 16.404 11.973 18.05 10.5066 19.4515C10.0749 19.8681 9.54247 20.2709 8.91746 20.1494C8.14777 19.9908 7.80982 19.1934 7.24155 17.8774L7.20567 17.8056C5.83299 14.6204 7.27049 10.904 9.39201 8.87733C10.5136 7.80672 11.9939 7.32408 13.4465 7.56135C14.7915 7.77779 15.9627 8.58218 16.811 9.84029C17.6027 9.45255 18.5367 9.3727 19.9105 9.3727C21.1536 9.3727 22.1108 9.45256 22.9153 9.80441C23.7498 8.61807 24.8782 7.83451 26.1653 7.58334C27.4952 7.32408 28.8691 7.67709 29.9479 8.53937C32.1759 10.3368 33.8009 13.8946 32.5937 17.2235L32.493 17.4967C32.0104 18.8335 31.7164 19.639 30.9606 19.8474C30.3426 20.0198 29.7743 19.639 29.4004 19.3369C27.8263 18.0638 27.6608 16.4249 27.5312 15.1032C27.4166 13.9596 27.3298 13.0615 26.5324 12.4145C26.3599 12.2698 26.1805 12.2201 26.0069 12.249C25.8564 12.2779 25.706 12.3705 25.5613 12.5221C26.9919 15.2039 28.4664 21.1056 28.6748 23.6934C28.6968 23.9874 28.7107 24.2756 28.7107 24.5557C28.7107 29.0487 26.9063 31.7293 23.8796 31.7293L23.8794 31.7374ZM19.8308 26.1157C20.1838 26.1157 20.4778 26.3808 20.5149 26.7268C20.7521 28.7963 22.1966 30.3565 23.8793 30.3565C26.9916 30.3565 27.3297 26.302 27.3297 24.5624C27.3297 24.3251 27.3227 24.074 27.3019 23.8147C27.0716 21.0254 25.4038 14.8864 24.1526 12.8449C24.0229 12.6297 24.016 12.3565 24.1456 12.1412C24.5333 11.4653 25.1086 11.0197 25.7556 10.904C26.3308 10.7963 26.913 10.9549 27.4026 11.3496C28.6526 12.3565 28.7891 13.7512 28.9118 14.9733C29.0415 16.2522 29.1491 17.3598 30.2706 18.2648C30.4292 18.3945 30.5299 18.4523 30.5947 18.4813C30.7591 18.2579 30.9894 17.604 31.2058 17.0218L31.3065 16.7486C32.2915 14.031 30.9396 11.0982 29.0912 9.60965C28.3227 8.99161 27.3806 8.75434 26.4385 8.9349C25.3598 9.14323 24.4107 9.89786 23.7637 11.0553C23.6711 11.2277 23.5056 11.3492 23.3181 11.3932C23.1318 11.436 22.9304 11.3932 22.7718 11.2856C22.1966 10.8897 21.4489 10.7462 19.9246 10.7462C18.4002 10.7462 17.6745 10.8678 17.1213 11.2636L17.0345 11.3284C16.876 11.458 16.6607 11.5147 16.4593 11.4719C16.2579 11.4291 16.0855 11.2995 15.9847 11.1201C15.3378 9.88279 14.3597 9.09924 13.2382 8.91983C12.2174 8.75432 11.1676 9.09923 10.3621 9.8689C8.56463 11.5726 7.35052 14.649 8.47203 17.2588L8.50791 17.3375C8.75212 17.8989 9.01834 18.5308 9.19772 18.7611C9.26948 18.7183 9.38522 18.6315 9.55766 18.466C10.6641 17.4024 10.8077 16.1443 10.9593 14.8144C11.1098 13.4776 11.2683 12.0899 12.4327 10.9765C13.001 10.4372 13.5403 10.4082 13.8922 10.48C14.5751 10.6166 15.1723 11.2566 15.6537 12.3781C15.7406 12.5795 15.7475 12.8527 15.6329 13.039C14.4535 15.0737 12.67 21.2983 12.39 23.8215C12.3541 24.1526 12.3321 24.4766 12.3321 24.7856C12.3321 26.4604 12.67 30.3631 15.7833 30.3631C17.4662 30.3631 18.9107 28.8041 19.1478 26.7335C19.1918 26.3886 19.4857 26.1224 19.8307 26.1224L19.8308 26.1157Z" fill="black"/>
<path d="M19.8321 32.3403C18.1133 32.3403 16.8623 31.5857 16.8623 30.5509C16.8623 30.1701 17.1713 29.8611 17.5533 29.8611C17.9341 29.8611 18.2431 30.1702 18.2431 30.5509C18.3079 30.6366 18.8611 30.9607 19.8322 30.9607C20.8021 30.9607 21.3565 30.6366 21.4283 30.5C21.4283 30.1192 21.7303 29.8391 22.1111 29.8391C22.4919 29.8391 22.794 30.1771 22.794 30.5579C22.794 31.5926 21.5428 32.3484 19.8242 32.3484L19.8321 32.3403Z" fill="black"/>
</svg>
