<svg width="25" height="24" viewBox="0 0 25 24" fill="none" xmlns="http://www.w3.org/2000/svg">
<path d="M12.0441 0C5.39238 0 0 5.39238 0 12.0441C0 17.6923 3.88879 22.4319 9.13471 23.7336V15.7248H6.65122V12.0441H9.13471V10.4581C9.13471 6.35879 10.99 4.45872 15.0146 4.45872C15.7777 4.45872 17.0944 4.60855 17.633 4.75789V8.0941C17.3488 8.06423 16.855 8.0493 16.2417 8.0493C14.2669 8.0493 13.5038 8.79748 13.5038 10.7424V12.0441H17.4379L16.762 15.7248H13.5038V24C19.4676 23.2798 24.0886 18.202 24.0886 12.0441C24.0882 5.39238 18.6958 0 12.0441 0Z" fill="white"/>
</svg>
