<svg width="40" height="40" viewBox="0 0 40 40" fill="none" xmlns="http://www.w3.org/2000/svg">
<path d="M29.4728 15.3401C29.1528 15.6567 28.7462 15.8301 28.3295 15.8601C28.2562 15.8667 28.1862 15.8734 28.1128 15.8834C27.6262 15.9467 26.6629 16.1301 25.8729 16.5834L22.9263 19.5267L20.473 17.0734L23.4163 14.1268C23.8696 13.3368 24.0529 12.3735 24.1163 11.8868C24.1263 11.8135 24.1329 11.7435 24.1396 11.6702C24.1696 11.2535 24.3429 10.8468 24.6596 10.5268C25.3496 9.83352 26.5095 9.82352 27.2095 10.5068C27.6429 10.9302 27.8195 11.5102 27.7395 12.0635C27.7229 12.1801 27.8195 12.2768 27.9362 12.2601C28.4895 12.1801 29.0695 12.3568 29.4928 12.7901C30.1761 13.4901 30.1661 14.6501 29.4728 15.3401ZM17.0731 20.4733L14.1264 23.4166C13.3365 23.8699 12.3731 24.0533 11.8865 24.1166C11.8132 24.1266 11.7432 24.1333 11.6698 24.1399C11.2532 24.1699 10.8465 24.3433 10.5265 24.6599C9.83319 25.3499 9.82319 26.5099 10.5065 27.2099C10.9298 27.6432 11.5098 27.8165 12.0631 27.7365C12.1798 27.7199 12.2765 27.8199 12.2598 27.9365C12.1798 28.4898 12.3565 29.0698 12.7898 29.4932C13.4898 30.1765 14.6498 30.1665 15.3398 29.4732C15.6564 29.1532 15.8297 28.7465 15.8597 28.3298C15.8664 28.2565 15.8731 28.1865 15.8831 28.1132C15.9464 27.6265 16.1297 26.6632 16.5831 25.8732L19.5263 22.9266L17.0731 20.4733ZM29.4928 27.2109C29.0712 27.6425 28.4885 27.8185 27.9352 27.7385C27.8199 27.7219 27.7215 27.8202 27.7382 27.9355C27.8185 28.4885 27.6425 29.0715 27.2105 29.4932C26.5099 30.1771 25.3496 30.1675 24.6596 29.4725C24.3433 29.1535 24.1696 28.7462 24.1393 28.3302C24.1343 28.2578 24.1276 28.1858 24.1179 28.1138C24.0516 27.6269 23.8709 26.6622 23.4179 25.8736L14.1264 16.5817C13.3378 16.1287 12.3735 15.9481 11.8862 15.8817C11.8142 15.8721 11.7422 15.8657 11.6698 15.8604C11.2538 15.8301 10.8462 15.6564 10.5275 15.3401C9.83252 14.6504 9.82286 13.4898 10.5068 12.7891C10.9285 12.3575 11.5112 12.1815 12.0645 12.2615C12.1798 12.2781 12.2781 12.1798 12.2615 12.0645C12.1815 11.5115 12.3571 10.9285 12.7891 10.5068C13.4898 9.82286 14.6501 9.83252 15.3401 10.5275C15.6564 10.8465 15.8301 11.2538 15.8604 11.6698C15.8654 11.7422 15.8721 11.8142 15.8817 11.8858C15.9481 12.3728 16.1287 13.3375 16.5817 14.1261L25.8729 23.4183C26.6615 23.8713 27.6259 24.0519 28.1132 24.1183C28.1852 24.1279 28.2572 24.1343 28.3295 24.1396C28.7455 24.1699 29.1532 24.3436 29.4718 24.6599C30.1668 25.3496 30.1765 26.5102 29.4928 27.2109Z" fill="black"/>
</svg>
