<svg width="40" height="40" viewBox="0 0 40 40" fill="none" xmlns="http://www.w3.org/2000/svg">
<path d="M20.5805 32.9973C20.3606 32.9973 20.1396 32.8896 20.0122 32.6905C19.7206 32.2507 19.4856 31.9521 18.7032 31.6245C18.3189 31.7032 17.9856 31.8097 17.7576 31.9093C17.4162 32.0655 17.0111 31.9232 16.8479 31.5817C16.6905 31.2403 16.8328 30.8352 17.1743 30.672C17.4301 30.5505 17.7935 30.4301 18.2125 30.3306V27.6211L17.6014 27.5933C16.9185 28.297 16.3641 28.9868 16.2785 29.6905C16.2646 29.7901 16.2576 29.9174 16.2495 30.0678C16.2067 30.878 16.143 32.0933 15.29 32.584C15.0192 32.7762 14.6998 32.819 14.4011 32.6986C14.187 32.613 13.8815 32.4914 13.5192 31.5956C12.9497 31.9729 12.0608 32.1083 10.4463 32.2009C9.60023 32.2507 7.61643 32.3572 7.50301 30.8063C7.44514 30.0817 8.22755 29.5412 9.30858 28.7877C9.71483 28.51 10.1269 28.2183 10.3688 27.9984C11.172 27.2588 11.9764 26.2067 12.1604 24.0656C12.1465 23.5402 12.1604 23.0205 12.1894 22.5089V22.4592C12.2252 21.9187 12.2889 21.3851 12.3815 20.8666C12.6084 19.8214 12.7866 18.84 12.9648 17.9012C14.003 12.2624 14.9058 7.40583 22.849 8.23101C22.8779 8.23101 22.9138 8.23796 22.9416 8.2449C24.386 8.60022 25.6441 9.38958 26.4832 10.4567C26.7182 10.7553 26.9311 11.1245 27.1024 11.5516C27.3084 11.5227 27.5214 11.5088 27.7355 11.5088C30.3814 11.5088 32.5352 13.613 32.5352 16.2021C32.5352 16.5574 32.4924 16.9197 32.4148 17.2611C32.3581 17.4961 32.1868 17.6813 31.96 17.7519C31.732 17.8225 31.4831 17.7808 31.3049 17.6234C31.0422 17.3965 30.7436 17.2183 30.4229 17.0759C30.409 18.8039 28.6104 20.105 27.4437 20.105H27.4217C27.365 20.4533 27.3083 20.7948 27.2377 21.1362C26.5397 24.685 25.4309 26.3632 23.8732 27.1235V28.2184C24.8478 28.1617 25.9357 28.3179 26.7968 28.9649C27.0954 29.1929 27.1591 29.6188 26.9311 29.9186C26.7042 30.2172 26.2772 30.2809 25.9786 30.0529C25.6938 29.8399 25.3594 29.7115 24.9971 29.6408C25.0897 29.7612 25.1823 29.8897 25.2679 30.0251C25.4739 30.3376 25.3883 30.7647 25.0688 30.9707C24.7552 31.1767 24.3292 31.0911 24.1221 30.7716C23.8455 30.3515 23.6175 30.0598 22.9137 29.7473C22.6719 29.811 22.4658 29.8897 22.3096 29.9684C21.9681 30.1316 21.5619 29.9962 21.3917 29.6547C21.2285 29.3133 21.3628 28.9082 21.7042 28.7381C21.9103 28.6385 22.188 28.532 22.5086 28.4464V27.5575C21.6336 27.7207 20.6521 27.7276 19.5572 27.6848V30.1524C20.5306 30.1177 21.5908 30.2878 22.4369 30.8989C22.7424 31.12 22.8142 31.5459 22.5931 31.8526C22.3732 32.1582 21.9461 32.2288 21.6406 32.0089C21.4346 31.8596 21.1927 31.745 20.9369 31.6675C21.0006 31.7531 21.0642 31.8446 21.129 31.9441C21.335 32.2577 21.2494 32.6837 20.9288 32.8897C20.8154 32.9684 20.6881 33.0043 20.5596 33.0043L20.5805 32.9973ZM14.4371 29.9463C14.5575 30.437 14.6709 30.7924 14.7705 31.0412C14.8202 30.8282 14.8631 30.4937 14.892 29.9891C14.8989 29.8039 14.9128 29.6477 14.9267 29.5192C15.0772 28.3178 15.8943 27.3792 16.833 26.4265C16.8399 26.4195 16.848 26.4056 16.8619 26.3975C16.9684 26.2841 17.0818 26.1776 17.1964 26.0642C18.9522 24.3142 20.6026 22.658 18.8457 19.4867C18.6605 19.1592 18.782 18.7402 19.1084 18.555C19.436 18.3698 19.8561 18.4914 20.0401 18.8177C21.9892 22.3386 20.4672 24.5991 18.8955 26.2773C23.1837 26.4833 24.848 26.334 25.9289 20.8595C25.9995 20.4961 26.0644 20.1338 26.1211 19.7646C25.709 19.5227 25.3954 19.1454 25.1755 18.6338C25.1535 18.591 25.1396 18.5412 25.1326 18.4984C25.0968 18.4695 25.0609 18.4278 25.0331 18.3919C24.2079 17.3109 23.5817 15.5262 24.0227 13.9543C24.2935 13.0156 24.8977 12.305 25.7935 11.8999C25.6801 11.658 25.5597 11.452 25.4312 11.2807C24.7842 10.4636 23.8097 9.85247 22.6789 9.5608C16.0297 8.88488 15.3894 12.3617 14.3293 18.1291C14.1522 19.0816 13.967 20.077 13.7471 21.1012C13.6684 21.563 13.6117 22.0318 13.5758 22.5086C13.5967 23.0769 13.5828 23.5966 13.5469 24.0734C13.5689 24.6707 13.6186 25.2748 13.7043 25.886C13.9531 27.6927 14.2089 28.9716 14.4219 29.8465C14.4288 29.8755 14.4369 29.9033 14.4439 29.9322L14.4371 29.9463ZM8.96721 30.7426C9.12461 30.7993 9.50771 30.8711 10.3758 30.8282C12.5667 30.7067 12.8295 30.5724 13.0494 30.0319C12.8862 29.3699 12.723 28.5319 12.5517 27.4787C12.1674 28.1188 11.7264 28.6025 11.3075 28.9937C10.995 29.2854 10.561 29.584 10.098 29.9035C9.75657 30.1384 9.22415 30.5076 8.97529 30.7495L8.96721 30.7426ZM26.4057 18.0576C26.4057 18.0576 26.4196 18.0865 26.4266 18.1004C26.5979 18.4916 26.8317 18.7335 27.4717 18.7335C28.0053 18.7335 29.0863 17.9511 29.0863 17.0483C29.0863 16.9557 29.0863 16.87 29.0654 16.7775H29.0585C28.055 16.7775 27.0527 17.3897 26.4057 18.0506L26.4057 18.0576ZM27.7564 12.8596C27.3224 12.8596 26.8965 12.9383 26.4902 13.0946C25.886 13.3226 25.5018 13.7416 25.3316 14.3319C25.1256 15.0645 25.268 16.024 25.68 16.8631C26.5481 16.0668 27.7784 15.4198 29.0584 15.4198C29.798 15.4198 30.5225 15.59 31.1846 15.9036C31.0353 14.2034 29.5561 12.8596 27.7564 12.8596Z" fill="black"/>
<path fill-rule="evenodd" clip-rule="evenodd" d="M22.3166 12.4115C21.996 12.4115 21.7402 12.6684 21.7402 12.981C21.7402 13.2935 21.996 13.5492 22.3166 13.5492C22.6361 13.5492 22.8918 13.2935 22.8918 12.981C22.8918 12.6684 22.6361 12.4115 22.3166 12.4115Z" fill="black"/>
<path d="M22.3164 14.2251C21.6196 14.2251 21.0571 13.6638 21.0571 12.9809C21.0571 12.298 21.6196 11.7297 22.3164 11.7297C23.0132 11.7297 23.5745 12.2911 23.5745 12.9809C23.5745 13.6707 23.0062 14.2251 22.3164 14.2251ZM22.3164 12.8594C22.2597 12.8594 22.2099 12.9091 22.2099 12.9809C22.2099 13.1082 22.4159 13.1082 22.4159 12.9809C22.4159 12.9172 22.3662 12.8594 22.3094 12.8594H22.3164Z" fill="black"/>
<path d="M12.6728 14.3386C11.976 14.3386 11.2781 14.1395 10.667 13.7553C10.3464 13.5562 10.255 13.1303 10.454 12.8178C10.6531 12.4972 11.079 12.4046 11.3927 12.6036C11.9679 12.9671 12.6508 13.0735 13.2839 12.8953C13.6612 12.7888 13.9807 12.5828 14.2156 12.312C13.9737 12.3339 13.7249 12.3339 13.476 12.312C12.3811 12.1985 11.3638 11.6152 10.7029 10.7055C10.4818 10.3999 10.5466 9.97282 10.8522 9.75293C11.1577 9.53187 11.5848 9.59553 11.8047 9.90224C12.2387 10.4995 12.8996 10.8837 13.6184 10.9543C14.0952 11.0041 14.557 10.9115 14.9413 10.6835C13.9806 10.6129 13.0489 10.3282 12.395 9.73096C11.9181 9.28999 11.3996 8.50065 11.6415 7.22169C11.7121 6.85132 12.0674 6.60249 12.4378 6.68119C12.807 6.75179 13.0489 7.10711 12.9783 7.47748C12.8718 8.02495 12.9783 8.41615 13.3128 8.72169C13.9806 9.33973 15.5743 9.51799 16.932 9.13372C17.2955 9.03418 17.6716 9.2402 17.7793 9.60362C17.8788 9.9659 17.6716 10.3432 17.3094 10.4497C17.0038 10.5342 16.6693 10.6059 16.3279 10.6488C16.4633 10.9184 16.4135 11.2529 16.1786 11.4659C16.0084 11.6221 15.8163 11.7576 15.6242 11.871C15.7665 12.0701 15.7943 12.334 15.6809 12.5678C15.2897 13.3721 14.5709 13.9624 13.6681 14.2182C13.3476 14.3108 13.0142 14.3536 12.6867 14.3536L12.6728 14.3386Z" fill="black"/>
</svg>
