<svg width="19" height="18" viewBox="0 0 19 18" fill="none" xmlns="http://www.w3.org/2000/svg">
<path d="M3.2264 12.253C2.50495 13.6698 2.84476 15.3114 3.56099 16.2001C4.09425 16.864 4.82617 17.1306 5.56331 16.9372C8.05182 16.2785 10.6764 16.2785 13.1646 16.9372C13.3215 16.979 13.4783 16.9999 13.6351 16.9999C14.205 16.9999 14.7435 16.7228 15.1669 16.2001C15.8832 15.3113 16.2282 13.6697 15.5015 12.253C13.8861 9.09526 11.706 7.35968 9.36384 7.35968C7.02171 7.35968 4.83645 9.09537 3.22614 12.253L3.2264 12.253ZM9.3641 8.06527C11.4291 8.06527 13.3845 9.66503 14.869 12.5718C15.4493 13.7115 15.1722 15.0603 14.6076 15.7504C14.4037 16.0065 13.9646 16.4091 13.3372 16.247C12.0355 15.902 10.6971 15.7295 9.35349 15.7295C8.00991 15.7295 6.67142 15.902 5.36974 16.247C4.74762 16.4143 4.30847 16.0066 4.09934 15.7504C3.53996 15.0603 3.25765 13.7063 3.83795 12.5718C5.3436 9.67022 7.29902 8.06527 9.3641 8.06527Z" fill="white" stroke="white" stroke-width="0.6"/>
<path d="M14.6077 8.99064C14.8272 9.11611 15.0677 9.17885 15.3239 9.17885C15.5696 9.17885 15.831 9.11611 16.0924 9.0011C16.5786 8.7763 17.0125 8.36851 17.321 7.8405C17.9797 6.70081 17.8228 5.41473 16.9602 4.91807C16.5315 4.67235 16.0035 4.66713 15.4755 4.90761C14.9893 5.13241 14.5554 5.5402 14.2521 6.06821C13.9489 6.591 13.8077 7.17653 13.86 7.70978C13.9071 8.28485 14.1737 8.74492 14.6077 8.99064ZM14.8586 6.42373C15.0886 6.0264 15.4128 5.71274 15.7683 5.55589C15.9303 5.48269 16.0924 5.44087 16.2388 5.44087C16.3747 5.44087 16.4949 5.47224 16.6047 5.53497C17.1066 5.82251 17.1484 6.72172 16.7041 7.49023C16.474 7.88756 16.1499 8.20122 15.7944 8.35807C15.4807 8.49923 15.1827 8.50446 14.9579 8.37899C14.7331 8.24829 14.5867 7.9869 14.5554 7.64707C14.524 7.25498 14.6286 6.82106 14.8586 6.42373Z" fill="white" stroke="white" stroke-width="0.6"/>
<path d="M11.3708 6.55968C11.4388 6.57014 11.5067 6.57536 11.5747 6.57536C12.4843 6.57536 13.347 5.54023 13.6031 4.0921C13.7286 3.38633 13.6868 2.68578 13.4777 2.12637C13.2529 1.49901 12.8451 1.10692 12.3432 1.01805C11.3656 0.845533 10.3827 1.92771 10.1109 3.48042C9.98539 4.18618 10.0272 4.88673 10.2363 5.44614C10.4611 6.07873 10.8637 6.47603 11.3708 6.55968ZM10.8114 3.60593C11.0153 2.45055 11.6531 1.71341 12.1446 1.71341C12.1707 1.71341 12.1968 1.71864 12.2282 1.71864C12.4687 1.76046 12.683 2.00095 12.819 2.37213C12.981 2.81127 13.0124 3.39681 12.9131 3.97712C12.6987 5.19523 11.9982 5.9585 11.4963 5.86441C11.2558 5.82259 11.0414 5.5821 10.9055 5.21092C10.7435 4.76653 10.7069 4.18624 10.8114 3.60593Z" fill="white" stroke="white" stroke-width="0.6"/>
<path d="M2.63513 9.0011C2.89653 9.12134 3.15792 9.17885 3.40364 9.17885C3.65981 9.17885 3.90552 9.11611 4.11987 8.99064C4.54858 8.74493 4.82042 8.29009 4.8727 7.70978C4.91975 7.17653 4.78382 6.591 4.48061 6.06821C4.1774 5.54542 3.74347 5.1324 3.25206 4.90761C2.72402 4.66713 2.19601 4.67235 1.76731 4.91807C0.904688 5.41473 0.747859 6.70081 1.40657 7.8405C1.71501 8.36854 2.14893 8.77631 2.63513 9.0011ZM2.12278 5.53502C2.34758 5.40433 2.64557 5.40955 2.95925 5.55594C3.31475 5.718 3.6389 6.02645 3.86891 6.42378C4.09892 6.82111 4.20349 7.25503 4.17212 7.6419C4.14075 7.98695 3.9996 8.24311 3.76957 8.37382C3.54477 8.50452 3.24678 8.49929 2.9331 8.35291C2.57761 8.19084 2.25346 7.88239 2.02345 7.48506C1.58431 6.71655 1.62612 5.82258 2.12278 5.53502Z" fill="white" stroke="white" stroke-width="0.6"/>
<path d="M5.91283 5.90647C6.28401 6.34561 6.71271 6.58086 7.14663 6.58086C7.21982 6.58086 7.28779 6.57563 7.35575 6.56518C7.85763 6.4763 8.2654 6.0842 8.49022 5.45686C8.69411 4.89748 8.73593 4.19693 8.61569 3.49114C8.49022 2.78537 8.21314 2.14231 7.82628 1.68749C7.39757 1.17514 6.88525 0.945128 6.37812 1.03399C5.87624 1.12287 5.46847 1.51497 5.24365 2.14231C5.03976 2.70169 4.99794 3.40224 5.11818 4.10804C5.24888 4.80859 5.53118 5.44639 5.91283 5.90647ZM5.91283 2.3724C6.04875 1.996 6.2631 1.76072 6.50358 1.71891C6.52972 1.71368 6.55586 1.71368 6.58723 1.71368C6.8068 1.71368 7.05774 1.86007 7.28777 2.13714C7.59099 2.49788 7.82103 3.03635 7.92036 3.61142C8.02492 4.19173 7.98833 4.77201 7.82626 5.2164C7.69033 5.5928 7.47599 5.82808 7.23551 5.86989C7.00025 5.91172 6.71272 5.76011 6.45653 5.45688C6.15331 5.09614 5.92328 4.55766 5.82394 3.9826C5.72461 3.40753 5.75076 2.81154 5.91283 2.3724Z" fill="white" stroke="white" stroke-width="0.6"/>
</svg>
