<svg width="24" height="24" viewBox="0 0 24 24" fill="none" xmlns="http://www.w3.org/2000/svg">
<path d="M7.63178 10.2886C7.54793 10.1649 7.56064 9.99551 7.6699 9.8854L9.22926 8.32605C9.46982 8.08549 9.59094 7.76702 9.59094 7.44937C9.59094 7.13173 9.47067 6.81326 9.22926 6.5727L7.61315 4.9566C7.3726 4.71604 7.05497 4.59576 6.73648 4.59576C6.41886 4.59576 6.10037 4.71604 5.85981 4.9566L4.03448 6.78193C3.41277 7.40364 3.6491 8.65215 4.24624 10.0295C5.2635 12.3748 7.32098 15.0202 8.17206 15.8713C8.86323 16.5625 10.7394 18.0507 12.6807 19.1323C14.5391 20.1682 16.4355 20.8357 17.2606 20.0098L19.0859 18.1845C19.3264 17.9439 19.4476 17.6255 19.4476 17.3078C19.4476 16.9902 19.3273 16.6717 19.0859 16.4311L17.4698 14.815C17.2292 14.5745 16.9116 14.4542 16.5931 14.4542C16.2755 14.4542 15.957 14.5745 15.7164 14.815L14.1571 16.3744C14.0478 16.4837 13.8776 16.4972 13.7539 16.4125C13.15 16.0466 12.5571 15.6366 11.9802 15.1826C11.4102 14.7346 10.8571 14.245 10.3285 13.7156C9.79916 13.1862 9.30959 12.634 8.86152 12.0639C8.4075 11.4854 7.9977 10.8925 7.63178 10.2886ZM13.2695 3.62759C13.0984 3.59116 12.9892 3.42261 13.0247 3.2515C13.0612 3.08041 13.2297 2.97114 13.4008 3.00672C14.3055 3.20068 15.1889 3.52424 16.0215 3.97825C16.8279 4.41785 17.5834 4.9769 18.2619 5.65451C18.9683 6.36092 19.5451 7.15034 19.9915 7.99223C20.4531 8.86126 20.7733 9.7862 20.9546 10.7315C20.9876 10.9035 20.8749 11.0695 20.703 11.1025C20.531 11.1355 20.365 11.0229 20.332 10.8509C20.1634 9.96581 19.8627 9.101 19.4316 8.28793C19.0157 7.50443 18.477 6.76669 17.8138 6.10438C17.176 5.46658 16.4696 4.94311 15.72 4.53485C14.9425 4.11219 14.1166 3.80884 13.2695 3.62759ZM12.6343 5.86968C12.4623 5.83664 12.3497 5.67063 12.3827 5.49869C12.4157 5.32675 12.5817 5.21409 12.7537 5.24712C13.4745 5.38518 14.1784 5.63081 14.8399 5.98148C15.4794 6.32113 16.0808 6.76074 16.6186 7.29859C17.1827 7.86271 17.6393 8.49795 17.9866 9.17728C18.3457 9.87862 18.5862 10.6248 18.7091 11.3855C18.7362 11.5583 18.6184 11.7201 18.4456 11.7481C18.2729 11.776 18.1111 11.6574 18.0831 11.4847C17.9705 10.7884 17.7511 10.1057 17.4233 9.46537C17.1073 8.84873 16.6898 8.26854 16.1697 7.74846C15.6767 7.2555 15.127 6.85316 14.5417 6.54315C13.9353 6.22043 13.2916 5.9959 12.6343 5.86968ZM11.9753 8.22517C11.8016 8.20061 11.6814 8.03968 11.7059 7.86689C11.7305 7.69326 11.8914 7.57297 12.0642 7.59754C12.5902 7.67377 13.1086 7.83472 13.5956 8.0795C14.0674 8.31668 14.5087 8.63007 14.8975 9.01884C15.3168 9.43811 15.6471 9.91414 15.8876 10.424C16.1367 10.9501 16.2891 11.5116 16.3459 12.0808C16.3628 12.2553 16.2358 12.4103 16.0621 12.4272C15.8885 12.4442 15.7326 12.3171 15.7157 12.1435C15.6666 11.6471 15.5327 11.1559 15.3142 10.6951C15.105 10.2529 14.8161 9.83707 14.4477 9.46862C14.1038 9.12474 13.7193 8.85029 13.3118 8.64532C12.89 8.43187 12.4378 8.29209 11.9753 8.22517ZM9.67811 8.77574L8.29663 10.1572C8.61765 10.6714 8.97255 11.177 9.36047 11.67C9.79076 12.2172 10.2634 12.7508 10.7775 13.265C11.2917 13.7791 11.8253 14.2517 12.3725 14.682C12.8654 15.07 13.3711 15.4249 13.8853 15.7467L15.2668 14.3652C15.6318 14.0002 16.1121 13.8181 16.5923 13.8181C17.0726 13.8181 17.5537 14.0002 17.9188 14.3652L19.5349 15.9814C19.8999 16.3464 20.082 16.8267 20.082 17.3078C20.082 17.788 19.8999 18.2692 19.5349 18.6342L17.7095 20.4595C16.6245 21.5446 14.4535 20.8458 12.3725 19.6862C10.3736 18.5724 8.4374 17.0358 7.72249 16.3209C6.84328 15.4417 4.71822 12.7084 3.66439 10.2809C2.969 8.67754 2.73607 7.18082 3.58392 6.33299L5.40925 4.50766C5.77432 4.14259 6.25457 3.9605 6.73484 3.9605C7.21511 3.9605 7.69621 4.1426 8.06128 4.50766L9.67738 6.12377C10.0424 6.48883 10.2245 6.96908 10.2245 7.4502C10.2262 7.93132 10.0432 8.41068 9.67811 8.77574Z" fill="#EE5335" stroke="#EE5335" stroke-width="0.4"/>
</svg>
