<svg width="24" height="24" viewBox="0 0 24 24" fill="none" xmlns="http://www.w3.org/2000/svg">
<path fill-rule="evenodd" clip-rule="evenodd" d="M12 3C7.0326 3 3 7.0326 3 12C3 16.9674 7.0326 21 12 21C16.9674 21 21 16.9674 21 12C21 7.0326 16.9674 3 12 3ZM12 4.2C16.305 4.2 19.8 7.695 19.8 12C19.8 16.305 16.305 19.8 12 19.8C7.695 19.8 4.2 16.305 4.2 12C4.2 7.695 7.695 4.2 12 4.2ZM11.4 6V12C11.4 12.2274 11.5284 12.435 11.7318 12.5364L16.5318 14.9364C16.8276 15.0846 17.1888 14.9646 17.3364 14.6682C17.4846 14.3724 17.3646 14.0112 17.0682 13.8636L12.6 11.6292V6C12.6 5.6688 12.3312 5.4 12 5.4C11.6688 5.4 11.4 5.6688 11.4 6Z" fill="#EE5335"/>
</svg>
